<?xml version="1.0" encoding="UTF-8"?>
<svg id="Layer_2" data-name="Layer 2" xmlns="http://www.w3.org/2000/svg" viewBox="0 0 166.97 135.35">
  <defs>
    <style>
      .cls-1 {
        stroke-width: 0px;
      }
    </style>
  </defs>
  <g id="Layer_1-2" data-name="Layer 1">
    <path class="cls-1" d="m60.54,121c15.51,0,31.81-6.75,42.78-17.72s18.4-27.71,17.72-42.78-5.84-31.87-17.72-42.78S76.93,0,60.54,0c-15.51,0-31.81,6.75-42.78,17.72S-.63,45.43.04,60.5s5.84,31.87,17.72,42.78c11.84,10.87,26.39,17.72,42.78,17.72h0Z"/>
    <path class="cls-1" d="m94.34,135.35c17.78,0,34.82-15.64,34-34s-14.94-34-34-34c-17.78,0-34.82,15.64-34,34s14.94,34,34,34h0Z"/>
    <path class="cls-1" d="m146.46,90.86c10.72,0,21-9.43,20.5-20.5s-9.01-20.5-20.5-20.5c-10.72,0-21,9.43-20.5,20.5s9.01,20.5,20.5,20.5h0Z"/>
  </g>
</svg>