<?xml version="1.0" encoding="UTF-8"?>
<svg id="Layer_2" data-name="Layer 2" xmlns="http://www.w3.org/2000/svg" viewBox="0 0 376 401">
  <defs>
    <style>
      .cls-1 {
        fill: #fff;
        stroke-width: 0px;
      }
    </style>
  </defs>
  <g id="Layer_1-2" data-name="Layer 1">
    <rect class="cls-1" y="150" width="376" height="251" rx="12" ry="12"/>
    <path class="cls-1" d="m54,167c4.64-29.57,12.97-59.85,26.1-86.8S112.97,28.55,139.26,13.93c33.22-18.48,76.22-18.83,108.96.49,25.26,14.91,43.31,40.02,54.52,67.13,11.2,27.09,16.15,56.3,20.12,85.33-.07-.5-21.09.09-22.86.11-2.69-25.72-4.92-52.9-15.43-76.52-9.91-22.28-25.23-42.86-46.39-54.98-20.69-11.86-46.32-14.77-69.14-7.85-28.14,8.52-50.46,30.88-65,56.44-14.54,25.55-22.23,54.34-29.41,82.85"/>
  </g>
</svg>