<?xml version="1.0" encoding="UTF-8"?>
<svg id="Layer_1" data-name="Layer 1" xmlns="http://www.w3.org/2000/svg" viewBox="0 0 200 125">
  <defs>
    <style>
      .cls-1 {
        fill: #fff;
      }
    </style>
  </defs>
  <path class="cls-1" d="m183.73,32.53H16.27c-8.98,0-16.27-7.28-16.27-16.27h0C0,7.28,7.28,0,16.27,0h167.47c8.98,0,16.27,7.28,16.27,16.27h0c0,8.98-7.28,16.27-16.27,16.27Zm16.27,29.97h0c0-8.98-7.28-16.27-16.27-16.27H16.27c-8.98,0-16.27,7.28-16.27,16.27h0c0,8.98,7.28,16.27,16.27,16.27h167.47c8.98,0,16.27-7.28,16.27-16.27Zm0,46.23h0c0-8.98-7.28-16.27-16.27-16.27H16.27c-8.98,0-16.27,7.28-16.27,16.27h0c0,8.98,7.28,16.27,16.27,16.27h167.47c8.98,0,16.27-7.28,16.27-16.27Z"/>
</svg>