<?xml version="1.0" encoding="UTF-8"?>
<svg id="Layer_2" data-name="Layer 2" xmlns="http://www.w3.org/2000/svg" viewBox="0 0 400.48 272.09">
  <defs>
    <style>
      .cls-1 {
        fill: #fff;
        stroke-width: 0px;
      }
    </style>
  </defs>
  <path class="cls-1" d="m70.56,158.89c.21.1.43.17.66.21,2.57.47,4.08-2.76,4.63-5.32,6.44-29.72,11.77-59.67,15.98-89.79,1.06-7.56,2.45-15.88,8.38-20.68,3.67-2.97,8.61-4.06,13.32-3.77,12.34.77,22.8,10.47,27.57,21.88s4.75,24.24,3.48,36.53c-2.83,27.39-11.5,54.02-24.07,78.52-6.69,13.05-14.56,25.61-24.6,36.29-4.29,4.57-9.2,8.91-15.21,10.66-8.43,2.45-17.47-.59-25.27-4.61C24.05,202.68,4.92,171.19.84,136.54c-2.46-20.9,1.57-47.3,26.13-51.34,3.56-.59,7.31-.7,10.68.58,5.15,1.97,8.56,6.85,11.15,11.71,9.58,17.94,12.32,38.65,19.22,57.78.51,1.42,1.25,3,2.54,3.61Z"/>
  <path class="cls-1" d="m142.53,168.1c1.22-22.53,12.75-57.66,40.95-55.85,13.08.84,24.36,10.06,31.6,20.43,8.87,12.7,13.35,28.71,10.9,44.01s-12.21,29.56-26.23,36.15c-14.02,6.59-31.99,4.66-43.45-5.77-9.98-9.08-14.18-23.23-13.86-36.72.02-.74.05-1.49.09-2.25Z"/>
  <path class="cls-1" d="m241.52,173.21c0-.06,0-.12,0-.18-.19-9.37-.14-18.75.17-28.12.27-8.25-.44-17.75,2.56-25.58,3.42-9.03,11.47-13.56,20.74-11.03,16.8,4.57,16.5,27.26,17.65,41.08,1.09,13.06,1.16,26.21.21,39.28-.79,10.97-.99,24.17-11.63,30.61-7.56,4.57-18.4,1.95-23.5-5.26-7.65-10.83-5.96-28.23-6.2-40.79Z"/>
  <path class="cls-1" d="m300.21,127.25c-.53,3.21-.6,6.57-.64,9.82-.22,17.32-1.23,34.84-.57,52.15.48,12.65,5.81,23.2,18.03,28.04,7.97,3.16,16.78,3.52,25.34,3.05,28.68-1.57,56.5-17.9,58.02-49.49,1.2-24.99-16.53-43.71-38.19-52.95-12.46-5.31-28.48-9.62-42.13-8.26-6.46.64-13,3.47-16.63,8.85-1.78,2.64-2.73,5.65-3.25,8.8Z"/>
  <path class="cls-1" d="m208.3,22.2c.71-.55,1.43-1.09,2.15-1.62C226.63,8.67,246.04.84,266.09-.24c25.67-1.38,51.37,8.5,70.96,25.15,19.59,16.65,33.24,39.69,40.58,64.33,1.04,3.48,1.96,7.13,1.4,10.72-1.08,6.91-8.13,10.39-13.87,6.19-4.59-3.36-6.44-9.9-8.39-14.95-7.71-20.05-22.32-37.46-41.02-48.03-18.7-10.56-41.39-14.07-62.27-9.07-16.98,4.06-32.38,13.48-45.12,25.41-12.2,11.42-22.33,25.23-30.82,39.58-1.37,2.32-2.74,4.71-4.77,6.48s-4.93,2.8-7.47,1.92c-1.41-.49-2.6-1.53-3.44-2.77-2.03-2.97-2.12-6.85-1.68-10.42,1.77-14.35,10.21-28.2,18.24-39.94s18.24-23.17,29.88-32.15Z"/>
  <g>
    <path class="cls-1" d="m130.76,260.17c.8,2.08,1.2,3.52,1.2,4.32,0,1.44-.46,2.6-1.37,3.48s-2.14,1.32-3.67,1.32c-1.31,0-2.48-.5-3.5-1.49-1.02-.99-1.78-2.34-2.26-4.03l-.48-1.68h-11.04l-.48,1.68c-.48,1.66-1.23,3-2.26,4.01-1.03,1.01-2.19,1.51-3.5,1.51-1.54,0-2.76-.44-3.67-1.32s-1.37-2.04-1.37-3.48c0-.8.4-2.24,1.2-4.32l7.68-20.16c.8-2.02,1.78-3.48,2.93-4.39,1.15-.91,2.82-1.37,4.99-1.37s3.85.46,5.02,1.37c1.17.91,2.14,2.38,2.9,4.39l7.68,20.16Zm-12.48-6.72l-2.88-8.16h-.48l-2.88,8.16h6.24Z"/>
    <path class="cls-1" d="m150.87,268.06c-2.24-1.14-3.95-2.74-5.14-4.8-1.18-2.06-1.78-4.46-1.78-7.18v-16.56c0-1.34.48-2.48,1.44-3.41.96-.93,2.16-1.39,3.6-1.39s2.64.46,3.6,1.39c.96.93,1.44,2.06,1.44,3.41v16.56c0,1.63.46,2.96,1.39,3.98.93,1.02,2.06,1.54,3.41,1.54s2.48-.51,3.41-1.54c.93-1.02,1.39-2.35,1.39-3.98v-16.56c0-1.34.48-2.48,1.44-3.41.96-.93,2.16-1.39,3.6-1.39s2.64.46,3.6,1.39c.96.93,1.44,2.06,1.44,3.41v16.56c0,2.72-.59,5.11-1.78,7.18-1.18,2.06-2.9,3.66-5.14,4.8s-4.9,1.7-7.97,1.7-5.73-.57-7.97-1.7Z"/>
    <path class="cls-1" d="m202.76,235.21c3.14,0,5.89.61,8.26,1.82,2.37,1.22,4.18,2.92,5.45,5.11,1.26,2.19,1.9,4.68,1.9,7.46v4.8c0,2.78-.63,5.27-1.9,7.46-1.26,2.19-3.08,3.9-5.45,5.11-2.37,1.22-5.12,1.82-8.26,1.82h-8.64c-1.44,0-2.64-.46-3.6-1.39s-1.44-2.06-1.44-3.41v-24c0-1.34.48-2.48,1.44-3.41.96-.93,2.16-1.39,3.6-1.39h8.64Zm5.28,14.4c0-1.86-.51-3.36-1.54-4.51s-2.27-1.73-3.74-1.73h-3.6v17.28h3.6c1.47,0,2.72-.58,3.74-1.73,1.02-1.15,1.54-2.66,1.54-4.51v-4.8Z"/>
    <path class="cls-1" d="m235.16,267.89c-.96-.93-1.44-2.06-1.44-3.41v-24.96c0-1.34.48-2.48,1.44-3.41.96-.93,2.16-1.39,3.6-1.39s2.64.46,3.6,1.39c.96.93,1.44,2.06,1.44,3.41v24.96c0,1.34-.48,2.48-1.44,3.41s-2.16,1.39-3.6,1.39-2.64-.46-3.6-1.39Z"/>
    <path class="cls-1" d="m266.5,267.94c-2.37-1.22-4.18-2.92-5.45-5.11-1.26-2.19-1.9-4.68-1.9-7.46v-6.72c0-2.78.63-5.27,1.9-7.46,1.26-2.19,3.08-3.9,5.45-5.11,2.37-1.22,5.12-1.82,8.26-1.82s5.89.61,8.26,1.82c2.37,1.22,4.18,2.92,5.45,5.11,1.26,2.19,1.9,4.68,1.9,7.46v6.72c0,2.78-.63,5.27-1.9,7.46-1.26,2.19-3.08,3.9-5.45,5.11-2.37,1.22-5.12,1.82-8.26,1.82s-5.89-.61-8.26-1.82Zm12-8.06c1.02-1.15,1.54-2.66,1.54-4.51v-6.72c0-1.86-.51-3.36-1.54-4.51-1.02-1.15-2.27-1.73-3.74-1.73s-2.72.58-3.74,1.73c-1.02,1.15-1.54,2.66-1.54,4.51v6.72c0,1.86.51,3.36,1.54,4.51,1.02,1.15,2.27,1.73,3.74,1.73s2.72-.58,3.74-1.73Z"/>
  </g>
</svg>