<?xml version="1.0" encoding="UTF-8"?>
<svg id="Layer_2" data-name="Layer 2" xmlns="http://www.w3.org/2000/svg" viewBox="0 0 887 309.8">
  <defs>
    <style>
      .cls-1 {
        fill: #caede9;
        stroke-width: 0px;
      }
    </style>
  </defs>
  <g id="Layer_1-2" data-name="Layer 1">
    <path class="cls-1" d="m657.28,309.8c-.21,0-.39-.01-.54-.02-1.64-.1-4.75-1.37-4.75-5.46,0-5.51-3.93-69.43-7.7-129.22-.17-2.7-4.08-2.87-4.48-.19l-6.52,43.02c-.35,2.32-3.58,2.63-4.36.41l-12.33-34.93c-.77-2.19-3.95-1.93-4.35.36-.68,3.92-1.4,8-2.14,12.08-2.09,11.57-3.87,20.8-5.3,27.45-2.64,12.26-3.69,16.15-8.23,16.42-2.08.12-4.55-1.08-5.4-4.02-1.47-5.13-7.16-56.16-10.75-89.21-.25-2.3-3.38-2.78-4.31-.66l-23.1,52.6c-.91,2.07-3.96,1.66-4.3-.57l-13.04-87.51c-.39-2.59-4.13-2.55-4.47.04l-16.66,127.19c-.3,2.31-3.49,2.7-4.34.53l-27.97-71.57c-.84-2.15-3.99-1.8-4.33.49l-13.5,90.62c-.4,2.65-4.26,2.52-4.48-.15l-11.78-144.46c-.23-2.81-4.37-2.74-4.5.08l-8.44,178.48c-.13,2.81-2.41,5.04-5.22,5.13h0c-2.81.08-5.22-2.01-5.52-4.81l-19.04-176.91c-.27-2.47-3.75-2.76-4.42-.36l-39.77,143.42c-.66,2.4-4.15,2.11-4.42-.36l-10.55-98.45c-.25-2.38-3.55-2.78-4.36-.53l-17.64,48.72c-.78,2.16-3.91,1.91-4.34-.35h0c-.49-2.58-4.24-2.38-4.46.23l-4.81,56.29c-.23,2.71-4.17,2.77-4.49.07l-18.46-156.04c-.31-2.63-4.12-2.66-4.48-.04l-16.37,120.57c-.34,2.49-3.89,2.64-4.44.19l-8.77-39.26c-.51-2.29-3.74-2.37-4.37-.12l-15.89,56.81c-.65,2.33-4.02,2.14-4.4-.26l-22.23-140.77c-.35-2.2-3.34-2.62-4.28-.59l-36.76,79.83c-.37.8-1.17,1.31-2.05,1.31H5c-2.76,0-5-2.24-5-5h0c0-2.76,2.24-5,5-5h152.3c.88,0,1.68-.51,2.05-1.31l47.89-104.01c.93-2.03,3.93-1.61,4.28.59l20.22,128.07c.38,2.39,3.75,2.59,4.4.26l14.25-50.96c.63-2.26,3.86-2.17,4.37.12l5.28,23.65c.55,2.46,4.1,2.31,4.44-.19l19.46-143.29c.36-2.63,4.16-2.59,4.48.04l16.16,136.66c.32,2.7,4.26,2.63,4.49-.07l2.63-30.85c.22-2.61,3.97-2.81,4.46-.23l6.79,35.62c.43,2.25,3.56,2.5,4.34.35l19.97-55.15c.81-2.25,4.11-1.85,4.36.53l9.58,89.4c.27,2.47,3.75,2.76,4.42.36l39.75-143.36c.66-2.4,4.15-2.11,4.42.36l15.14,140.66c.3,2.77,4.37,2.65,4.5-.13l9.33-197.35c.13-2.8,2.42-5.02,5.22-5.07h0c2.81-.05,5.17,2.09,5.39,4.89l13.47,165.2c.22,2.67,4.09,2.8,4.48.15l6.23-41.85c.34-2.29,3.49-2.64,4.33-.49l27.47,70.28c.85,2.17,4.04,1.79,4.34-.53l20.88-159.42c.34-2.59,4.08-2.63,4.47-.04l18.46,123.9c.33,2.24,3.39,2.65,4.3.57l24.26-55.24c.93-2.12,4.07-1.63,4.31.67l1.09,10.27c2.36,22.24,5.61,52,8.33,75.66.3,2.58,3.99,2.69,4.45.14,2.38-13.15,4.84-27.59,6.81-39.64l1.72-10.59c.38-2.31,3.58-2.59,4.35-.39l11.91,33.73c.78,2.22,4.01,1.91,4.36-.41l14.47-95.49c.4-2.67,4.31-2.5,4.48.19l1.63,25.44c.29,4.5,4.4,68.54,7.73,122.55.17,2.73,4.14,2.86,4.49.14,2.99-23.66,6.16-49.21,8.76-70.47l1.69-13.76c.3-2.45,3.76-2.71,4.41-.32l18.97,68.87c.58,2.09,3.48,2.24,4.28.23l14.72-37.47c.34-.86,1.17-1.43,2.1-1.43h164.87c2.76,0,5,2.24,5,5h0c0,2.76-2.24,5-5,5h-158.06c-.93,0-1.76.57-2.1,1.43l-23.2,59.06c-.79,2.02-3.7,1.86-4.28-.23l-13.55-49.18c-.66-2.38-4.11-2.13-4.41.32-1.38,11.1-2.95,23.69-4.54,36.23-2.66,21.06-4.83,37.84-6.44,49.87-.96,7.16-1.73,12.71-2.3,16.49-.31,2.1-.56,3.65-.76,4.74-.94,5.23-3.66,5.74-5.08,5.74Z"/>
  </g>
</svg>